<?xml version="1.0" encoding="UTF-8"?>
<svg width="300px" height="193px" viewBox="0 0 300 193" version="1.1" xmlns="http://www.w3.org/2000/svg" xmlns:xlink="http://www.w3.org/1999/xlink">
    <!-- Generator: Sketch 52.6 (67491) - http://www.bohemiancoding.com/sketch -->
    <title>illustration-mockups 2</title>
    <desc>Created with Sketch.</desc>
    <defs>
        <linearGradient x1="14.811%" y1="-22.362%" x2="75.996%" y2="119.406%" id="linearGradient-1">
            <stop stop-color="#FAD961" offset="0%"></stop>
            <stop stop-color="#FF52C1" offset="100%"></stop>
        </linearGradient>
        <linearGradient x1="50%" y1="0%" x2="50%" y2="100%" id="linearGradient-2">
            <stop stop-color="#00C7FA" offset="0%"></stop>
            <stop stop-color="#007DFA" offset="100%"></stop>
        </linearGradient>
        <linearGradient x1="28.973%" y1="0%" x2="90.2%" y2="111.244%" id="linearGradient-3">
            <stop stop-color="#FF52C1" offset="0%"></stop>
            <stop stop-color="#9952FF" offset="100%"></stop>
        </linearGradient>
    </defs>
    <g id="Page-1" stroke="none" stroke-width="1" fill="none" fill-rule="evenodd">
        <g id="illustration-mockups">
            <g id="Group">
                <g id="b-link" fill="#000000">
                    <rect id="b" x="0" y="0" width="283" height="161" rx="20"></rect>
                </g>
                <g id="b-link" fill="#FFFFFF">
                    <rect id="b" x="0" y="0" width="283" height="161" rx="20"></rect>
                </g>
                <g id="d-link" fill="#000000">
                    <path d="M5.89583333,0 L277.104167,0 C280.360435,0 283,2.40265667 283,5.36666667 L283,17.1733333 L0,17.1733333 L0,5.36666667 C0,2.40265667 2.63956458,0 5.89583333,0 Z" id="d"></path>
                </g>
                <g id="d-link" fill="#00252E">
                    <path d="M5.89583333,0 L277.104167,0 C280.360435,0 283,2.40265667 283,5.36666667 L283,17.1733333 L0,17.1733333 L0,5.36666667 C0,2.40265667 2.63956458,0 5.89583333,0 Z" id="d"></path>
                </g>
                <rect id="Rectangle" fill="#E1E8EE" x="21.225" y="5.36666667" width="58.9583333" height="6.44" rx="3.22"></rect>
                <g transform="translate(254.700000, 5.903333)" fill="#D8D8D8" id="Rectangle">
                    <rect x="0" y="0" width="9.43333333" height="1.07333333" rx="0.536666667"></rect>
                    <rect x="0" y="2.14666667" width="9.43333333" height="1.07333333" rx="0.536666667"></rect>
                    <rect x="0" y="4.29333333" width="9.43333333" height="1.07333333" rx="0.536666667"></rect>
                </g>
                <g transform="translate(21.225000, 37.030000)">
                    <ellipse id="Oval" fill="url(#linearGradient-1)" cx="14.15" cy="12.88" rx="14.15" ry="12.88"></ellipse>
                    <g transform="translate(44.808333, 3.220000)" fill="#E1E8EE" id="Rectangle">
                        <rect x="0" y="0" width="33.9010417" height="4.29333333" rx="2.14666667"></rect>
                        <rect x="0" y="8.58666667" width="117.916667" height="2.14666667" rx="1.07333333"></rect>
                        <rect x="0" y="12.88" width="108.090376" height="2.14666667" rx="1.07333333"></rect>
                        <rect x="0" y="17.1733333" width="98.2637906" height="2.14666667" rx="1.07333333"></rect>
                    </g>
                    <g transform="translate(176.875000, 9.660000)" fill="#A7B9C8" id="Oval">
                        <ellipse cx="3.5375" cy="3.22" rx="3.5375" ry="3.22"></ellipse>
                        <ellipse cx="22.4041667" cy="3.22" rx="3.5375" ry="3.22"></ellipse>
                        <ellipse cx="12.9708333" cy="3.22" rx="3.5375" ry="3.22"></ellipse>
                        <ellipse cx="31.8375" cy="3.22" rx="3.5375" ry="3.22"></ellipse>
                        <ellipse cx="41.2708333" cy="3.22" rx="3.5375" ry="3.22"></ellipse>
                    </g>
                </g>
                <g transform="translate(21.225000, 73.523333)">
                    <ellipse id="Oval" fill="url(#linearGradient-2)" cx="13.265625" cy="12.075" rx="13.265625" ry="12.075"></ellipse>
                    <g transform="translate(43.923958, 2.415000)" fill="#E1E8EE" id="Rectangle">
                        <rect x="0" y="0" width="33.9010417" height="4.29333333" rx="2.14666667"></rect>
                        <rect x="0" y="8.58666667" width="117.916667" height="2.14666667" rx="1.07333333"></rect>
                        <rect x="0" y="12.88" width="108.090376" height="2.14666667" rx="1.07333333"></rect>
                        <rect x="0" y="17.1733333" width="98.2637906" height="2.14666667" rx="1.07333333"></rect>
                    </g>
                    <g transform="translate(175.990625, 8.855000)" fill="#A7B9C8" id="Oval">
                        <ellipse cx="3.5375" cy="3.22" rx="3.5375" ry="3.22"></ellipse>
                        <ellipse cx="22.4041667" cy="3.22" rx="3.5375" ry="3.22"></ellipse>
                        <ellipse cx="12.9708333" cy="3.22" rx="3.5375" ry="3.22"></ellipse>
                    </g>
                </g>
                <g transform="translate(21.225000, 111.895000)">
                    <ellipse id="Oval" fill="url(#linearGradient-3)" cx="13.265625" cy="12.075" rx="13.265625" ry="12.075"></ellipse>
                    <g transform="translate(43.923958, 2.415000)" fill="#E1E8EE" id="Rectangle">
                        <rect x="0" y="0" width="33.9010417" height="4.29333333" rx="2.14666667"></rect>
                        <rect x="0" y="8.58666667" width="117.916667" height="2.14666667" rx="1.07333333"></rect>
                        <rect x="0" y="12.88" width="108.090376" height="2.14666667" rx="1.07333333"></rect>
                        <rect x="0" y="17.1733333" width="98.2637906" height="2.14666667" rx="1.07333333"></rect>
                    </g>
                    <g transform="translate(175.990625, 8.855000)" fill="#A7B9C8" id="Oval">
                        <ellipse cx="3.5375" cy="3.22" rx="3.5375" ry="3.22"></ellipse>
                        <ellipse cx="22.4041667" cy="3.22" rx="3.5375" ry="3.22"></ellipse>
                        <ellipse cx="12.9708333" cy="3.22" rx="3.5375" ry="3.22"></ellipse>
                        <ellipse cx="31.8375" cy="3.22" rx="3.5375" ry="3.22"></ellipse>
                    </g>
                </g>
            </g>
            <g id="Group" transform="translate(206.000000, 56.000000)">
                <g id="i-link" fill="#000000">
                    <rect id="i" x="0" y="0" width="94" height="137" rx="17.067"></rect>
                </g>
                <g id="i-link" fill="#FFFFFF">
                    <rect id="i" x="0" y="0" width="94" height="137" rx="17.067"></rect>
                </g>
            </g>
            <g id="Group" transform="translate(206.000000, 56.000000)">
                <g id="k-link" fill="#000000">
                    <path d="M5.01343125,0 L88.9865687,0 C91.75575,0 94,2.08390909 94,4.65463636 L94,14.8944545 L0,14.8944545 L0,4.65463636 C0,2.08363636 2.24454375,0 5.01343125,0 Z" id="k"></path>
                </g>
                <g id="k-link" fill="#00252E">
                    <path d="M5.01343125,0 L88.9865687,0 C91.75575,0 94,2.08390909 94,4.65463636 L94,14.8944545 L0,14.8944545 L0,4.65463636 C0,2.08363636 2.24454375,0 5.01343125,0 Z" id="k"></path>
                </g>
            </g>
            <g id="Group" transform="translate(215.000000, 61.000000)">
                <rect id="Rectangle" fill="#E1E8EE" x="0" y="0" width="30.593532" height="4.87619048" rx="2.43809524"></rect>
                <g transform="translate(66.607708, 0.406429)" fill="#D8D8D8" id="Rectangle">
                    <rect x="0" y="0" width="8.03286132" height="1" rx="0.5"></rect>
                    <rect x="0" y="1.62547619" width="8.03286132" height="1" rx="0.5"></rect>
                    <rect x="0" y="3.25071429" width="8.03286132" height="1" rx="0.5"></rect>
                </g>
            </g>
            <g id="Group" transform="translate(215.000000, 85.000000)">
                <ellipse id="Oval" fill="url(#linearGradient-1)" cx="4.3910679" cy="4" rx="4.3910679" ry="4"></ellipse>
                <g transform="translate(13.465942, 0.800000)" fill="#E1E8EE" id="Rectangle">
                    <rect x="0" y="0" width="16.8324269" height="1.42213333" rx="0.711066667"></rect>
                    <rect x="0" y="2.84453333" width="58.547572" height="1" rx="0.5"></rect>
                    <rect x="0" y="4.26666667" width="53.6685101" height="1" rx="0.5"></rect>
                    <rect x="0" y="5.6888" width="48.7897409" height="1" rx="0.5"></rect>
                </g>
            </g>
            <g id="Group" transform="translate(215.000000, 122.000000)">
                <ellipse id="Oval" fill="url(#linearGradient-1)" cx="4.3910679" cy="4" rx="4.3910679" ry="4"></ellipse>
                <g transform="translate(13.465942, 0.800000)" fill="#E1E8EE" id="Rectangle">
                    <rect x="0" y="0" width="16.8324269" height="1.42213333" rx="0.711066667"></rect>
                    <rect x="0" y="2.84453333" width="58.547572" height="1" rx="0.5"></rect>
                    <rect x="0" y="4.26666667" width="53.6685101" height="1" rx="0.5"></rect>
                    <rect x="0" y="5.6888" width="48.7897409" height="1" rx="0.5"></rect>
                </g>
            </g>
            <g id="Group" transform="translate(215.000000, 97.000000)">
                <g transform="translate(13.465942, 0.800000)" fill="#E1E8EE" id="Rectangle">
                    <rect x="0" y="0" width="16.8324269" height="1.42213333" rx="0.711066667"></rect>
                    <rect x="0" y="2.84453333" width="58.547572" height="1" rx="0.5"></rect>
                    <rect x="0" y="4.26666667" width="53.6685101" height="1" rx="0.5"></rect>
                    <rect x="0" y="5.6888" width="48.7897409" height="1" rx="0.5"></rect>
                </g>
                <ellipse id="Oval" fill="url(#linearGradient-2)" cx="4.3910679" cy="4" rx="4.3910679" ry="4"></ellipse>
            </g>
            <g id="Group" transform="translate(215.000000, 134.000000)">
                <g transform="translate(13.465942, 0.800000)" fill="#E1E8EE" id="Rectangle">
                    <rect x="0" y="0" width="16.8324269" height="1.42213333" rx="0.711066667"></rect>
                    <rect x="0" y="2.84453333" width="58.547572" height="1" rx="0.5"></rect>
                    <rect x="0" y="4.26666667" width="53.6685101" height="1" rx="0.5"></rect>
                    <rect x="0" y="5.6888" width="48.7897409" height="1" rx="0.5"></rect>
                </g>
                <ellipse id="Oval" fill="url(#linearGradient-2)" cx="4.3910679" cy="4" rx="4.3910679" ry="4"></ellipse>
            </g>
            <g id="Group" transform="translate(215.000000, 109.000000)">
                <g transform="translate(13.465942, 0.800000)" fill="#E1E8EE" id="Rectangle">
                    <rect x="0" y="0" width="16.8324269" height="1.42213333" rx="0.711066667"></rect>
                    <rect x="0" y="2.84453333" width="58.547572" height="1" rx="0.5"></rect>
                    <rect x="0" y="4.26666667" width="53.6685101" height="1" rx="0.5"></rect>
                    <rect x="0" y="5.6888" width="48.7897409" height="1" rx="0.5"></rect>
                </g>
                <ellipse id="Oval" fill="url(#linearGradient-3)" cx="4.3910679" cy="4" rx="4.3910679" ry="4"></ellipse>
            </g>
            <g id="Group" transform="translate(215.000000, 146.000000)">
                <g transform="translate(13.465942, 0.800000)" fill="#E1E8EE" id="Rectangle">
                    <rect x="0" y="0" width="16.8324269" height="1.42213333" rx="0.711066667"></rect>
                    <rect x="0" y="2.84453333" width="58.547572" height="1" rx="0.5"></rect>
                    <rect x="0" y="4.26666667" width="53.6685101" height="1" rx="0.5"></rect>
                    <rect x="0" y="5.6888" width="48.7897409" height="1" rx="0.5"></rect>
                </g>
                <ellipse id="Oval" fill="url(#linearGradient-3)" cx="4.3910679" cy="4" rx="4.3910679" ry="4"></ellipse>
            </g>
            <g id="Group" transform="translate(215.000000, 159.000000)">
                <ellipse id="Oval" fill="url(#linearGradient-1)" cx="4.3910679" cy="4" rx="4.3910679" ry="4"></ellipse>
                <g transform="translate(13.465942, 0.800000)" fill="#E1E8EE" id="Rectangle">
                    <rect x="0" y="0" width="16.8324269" height="1.42213333" rx="0.711066667"></rect>
                    <rect x="0" y="2.84453333" width="58.547572" height="1" rx="0.5"></rect>
                    <rect x="0" y="4.26666667" width="53.6685101" height="1" rx="0.5"></rect>
                    <rect x="0" y="5.6888" width="48.7897409" height="1" rx="0.5"></rect>
                </g>
            </g>
            <g id="Group" transform="translate(215.000000, 171.000000)">
                <g transform="translate(13.465942, 0.800000)" fill="#E1E8EE" id="Rectangle">
                    <rect x="0" y="0" width="16.8324269" height="1.42213333" rx="0.711066667"></rect>
                    <rect x="0" y="2.84453333" width="58.547572" height="1" rx="0.5"></rect>
                    <rect x="0" y="4.26666667" width="53.6685101" height="1" rx="0.5"></rect>
                    <rect x="0" y="5.6888" width="48.7897409" height="1" rx="0.5"></rect>
                </g>
                <ellipse id="Oval" fill="url(#linearGradient-2)" cx="4.3910679" cy="4" rx="4.3910679" ry="4"></ellipse>
            </g>
        </g>
    </g>
</svg>