<?xml version="1.0" encoding="UTF-8"?>
<svg width="1016px" height="720px" viewBox="0 0 1016 720" version="1.1" xmlns="http://www.w3.org/2000/svg" xmlns:xlink="http://www.w3.org/1999/xlink">
    <!-- Generator: Sketch 52.6 (67491) - http://www.bohemiancoding.com/sketch -->
    <title>illustration-mockups</title>
    <desc>Created with Sketch.</desc>
    <defs>
        <linearGradient x1="14.811%" y1="-22.362%" x2="75.996%" y2="119.406%" id="linearGradient-1">
            <stop stop-color="#FAD961" offset="0%"></stop>
            <stop stop-color="#FF52C1" offset="100%"></stop>
        </linearGradient>
        <linearGradient x1="50%" y1="0%" x2="50%" y2="100%" id="linearGradient-2">
            <stop stop-color="#00C7FA" offset="0%"></stop>
            <stop stop-color="#007DFA" offset="100%"></stop>
        </linearGradient>
        <linearGradient x1="28.973%" y1="0%" x2="90.2%" y2="111.244%" id="linearGradient-3">
            <stop stop-color="#FF52C1" offset="0%"></stop>
            <stop stop-color="#9952FF" offset="100%"></stop>
        </linearGradient>
    </defs>
    <g id="Page-1" stroke="none" stroke-width="1" fill="none" fill-rule="evenodd">
        <g id="illustration-mockups">
            <g id="Group">
                <g id="b-link" fill="#000000">
                    <rect id="b" x="0" y="0" width="960" height="600" rx="20"></rect>
                </g>
                <g id="b-link" fill="#FFFFFF">
                    <rect id="b" x="0" y="0" width="960" height="600" rx="20"></rect>
                </g>
                <g id="d-link" fill="#000000">
                    <path d="M20,0 L940,0 C951.046,0 960,8.954 960,20 L960,64 L0,64 L0,20 C0,8.954 8.954,0 20,0 Z" id="d"></path>
                </g>
                <g id="d-link" fill="#00252E">
                    <path d="M20,0 L940,0 C951.046,0 960,8.954 960,20 L960,64 L0,64 L0,20 C0,8.954 8.954,0 20,0 Z" id="d"></path>
                </g>
                <rect id="Rectangle" fill="#E1E8EE" x="72" y="20" width="200" height="24" rx="5"></rect>
                <g transform="translate(864.000000, 22.000000)" fill="#D8D8D8" id="Rectangle">
                    <rect x="0" y="0" width="32" height="4" rx="2"></rect>
                    <rect x="0" y="8" width="32" height="4" rx="2"></rect>
                    <rect x="0" y="16" width="32" height="4" rx="2"></rect>
                </g>
                <g transform="translate(72.000000, 138.000000)">
                    <circle id="Oval" fill="url(#linearGradient-1)" cx="48" cy="48" r="48"></circle>
                    <g transform="translate(152.000000, 12.000000)" fill="#E1E8EE" id="Rectangle">
                        <rect x="0" y="0" width="115" height="16" rx="3"></rect>
                        <rect x="0" y="32" width="400" height="8" rx="3"></rect>
                        <rect x="0" y="48" width="366.667" height="8" rx="3"></rect>
                        <rect x="0" y="64" width="333.333" height="8" rx="3"></rect>
                    </g>
                    <g transform="translate(600.000000, 36.000000)" fill="#A7B9C8" id="Oval">
                        <circle cx="12" cy="12" r="12"></circle>
                        <circle cx="76" cy="12" r="12"></circle>
                        <circle cx="44" cy="12" r="12"></circle>
                        <circle cx="108" cy="12" r="12"></circle>
                        <circle cx="140" cy="12" r="12"></circle>
                    </g>
                </g>
                <g transform="translate(72.000000, 274.000000)">
                    <circle id="Oval" fill="url(#linearGradient-2)" cx="45" cy="45" r="45"></circle>
                    <g transform="translate(149.000000, 9.000000)" fill="#E1E8EE" id="Rectangle">
                        <rect x="0" y="0" width="115" height="16" rx="3"></rect>
                        <rect x="0" y="32" width="400" height="8" rx="3"></rect>
                        <rect x="0" y="48" width="366.667" height="8" rx="3"></rect>
                        <rect x="0" y="64" width="333.333" height="8" rx="3"></rect>
                    </g>
                    <g transform="translate(597.000000, 33.000000)" fill="#A7B9C8" id="Oval">
                        <circle cx="12" cy="12" r="12"></circle>
                        <circle cx="76" cy="12" r="12"></circle>
                        <circle cx="44" cy="12" r="12"></circle>
                    </g>
                </g>
                <g transform="translate(72.000000, 417.000000)">
                    <circle id="Oval" fill="url(#linearGradient-3)" cx="45" cy="45" r="45"></circle>
                    <g transform="translate(149.000000, 9.000000)" fill="#E1E8EE" id="Rectangle">
                        <rect x="0" y="0" width="115" height="16" rx="3"></rect>
                        <rect x="0" y="32" width="400" height="8" rx="3"></rect>
                        <rect x="0" y="48" width="366.667" height="8" rx="3"></rect>
                        <rect x="0" y="64" width="333.333" height="8" rx="3"></rect>
                    </g>
                    <g transform="translate(597.000000, 33.000000)" fill="#A7B9C8" id="Oval">
                        <circle cx="12" cy="12" r="12"></circle>
                        <circle cx="76" cy="12" r="12"></circle>
                        <circle cx="44" cy="12" r="12"></circle>
                        <circle cx="108" cy="12" r="12"></circle>
                    </g>
                </g>
            </g>
            <g id="Group" transform="translate(696.000000, 208.000000)">
                <g id="i-link" fill="#000000">
                    <rect id="i" x="0" y="0" width="320" height="512" rx="17.067"></rect>
                </g>
                <g id="i-link" fill="#FFFFFF">
                    <rect id="i" x="0" y="0" width="320" height="512" rx="17.067"></rect>
                </g>
            </g>
            <g id="Group" transform="translate(696.000000, 208.000000)">
                <g id="k-link" fill="#000000">
                    <path d="M17.067,0 L302.933,0 C312.36,0 320,7.641 320,17.067 L320,54.613 L0,54.613 L0,17.067 C0,7.64 7.641,0 17.067,0 Z" id="k"></path>
                </g>
                <g id="k-link" fill="#00252E">
                    <path d="M17.067,0 L302.933,0 C312.36,0 320,7.641 320,17.067 L320,54.613 L0,54.613 L0,17.067 C0,7.64 7.641,0 17.067,0 Z" id="k"></path>
                </g>
            </g>
            <g id="Group" transform="translate(728.133000, 226.773000)">
                <rect id="Rectangle" fill="#E1E8EE" x="0" y="0" width="104" height="20.48" rx="4.267"></rect>
                <g transform="translate(226.427000, 1.707000)" fill="#D8D8D8" id="Rectangle">
                    <rect x="0" y="0" width="27.307" height="3.413" rx="1.7065"></rect>
                    <rect x="0" y="6.827" width="27.307" height="3.413" rx="1.7065"></rect>
                    <rect x="0" y="13.653" width="27.307" height="3.413" rx="1.7065"></rect>
                </g>
            </g>
            <g id="Group" transform="translate(728.000000, 316.000000)">
                <circle id="Oval" fill="url(#linearGradient-1)" cx="15" cy="15" r="15"></circle>
                <g transform="translate(46.000000, 3.000000)" fill="#E1E8EE" id="Rectangle">
                    <rect x="0" y="0" width="57.5" height="5.333" rx="0.92"></rect>
                    <rect x="0" y="10.667" width="200" height="2.667" rx="0.92"></rect>
                    <rect x="0" y="16" width="183.333" height="2.667" rx="0.92"></rect>
                    <rect x="0" y="21.333" width="166.667" height="2.667" rx="0.92"></rect>
                </g>
            </g>
            <g id="Group" transform="translate(728.000000, 454.000000)">
                <circle id="Oval" fill="url(#linearGradient-1)" cx="15" cy="15" r="15"></circle>
                <g transform="translate(46.000000, 3.000000)" fill="#E1E8EE" id="Rectangle">
                    <rect x="0" y="0" width="57.5" height="5.333" rx="0.92"></rect>
                    <rect x="0" y="10.667" width="200" height="2.667" rx="0.92"></rect>
                    <rect x="0" y="16" width="183.333" height="2.667" rx="0.92"></rect>
                    <rect x="0" y="21.333" width="166.667" height="2.667" rx="0.92"></rect>
                </g>
            </g>
            <g id="Group" transform="translate(728.000000, 362.000000)">
                <g transform="translate(46.000000, 3.000000)" fill="#E1E8EE" id="Rectangle">
                    <rect x="0" y="0" width="57.5" height="5.333" rx="0.92"></rect>
                    <rect x="0" y="10.667" width="200" height="2.667" rx="0.92"></rect>
                    <rect x="0" y="16" width="183.333" height="2.667" rx="0.92"></rect>
                    <rect x="0" y="21.333" width="166.667" height="2.667" rx="0.92"></rect>
                </g>
                <circle id="Oval" fill="url(#linearGradient-2)" cx="15" cy="15" r="15"></circle>
            </g>
            <g id="Group" transform="translate(728.000000, 500.000000)">
                <g transform="translate(46.000000, 3.000000)" fill="#E1E8EE" id="Rectangle">
                    <rect x="0" y="0" width="57.5" height="5.333" rx="0.92"></rect>
                    <rect x="0" y="10.667" width="200" height="2.667" rx="0.92"></rect>
                    <rect x="0" y="16" width="183.333" height="2.667" rx="0.92"></rect>
                    <rect x="0" y="21.333" width="166.667" height="2.667" rx="0.92"></rect>
                </g>
                <circle id="Oval" fill="url(#linearGradient-2)" cx="15" cy="15" r="15"></circle>
            </g>
            <g id="Group" transform="translate(728.000000, 408.000000)">
                <g transform="translate(46.000000, 3.000000)" fill="#E1E8EE" id="Rectangle">
                    <rect x="0" y="0" width="57.5" height="5.333" rx="0.92"></rect>
                    <rect x="0" y="10.667" width="200" height="2.667" rx="0.92"></rect>
                    <rect x="0" y="16" width="183.333" height="2.667" rx="0.92"></rect>
                    <rect x="0" y="21.333" width="166.667" height="2.667" rx="0.92"></rect>
                </g>
                <circle id="Oval" fill="url(#linearGradient-3)" cx="15" cy="15" r="15"></circle>
            </g>
            <g id="Group" transform="translate(728.000000, 546.000000)">
                <g transform="translate(46.000000, 3.000000)" fill="#E1E8EE" id="Rectangle">
                    <rect x="0" y="0" width="57.5" height="5.333" rx="0.92"></rect>
                    <rect x="0" y="10.667" width="200" height="2.667" rx="0.92"></rect>
                    <rect x="0" y="16" width="183.333" height="2.667" rx="0.92"></rect>
                    <rect x="0" y="21.333" width="166.667" height="2.667" rx="0.92"></rect>
                </g>
                <circle id="Oval" fill="url(#linearGradient-3)" cx="15" cy="15" r="15"></circle>
            </g>
            <g id="Group" transform="translate(728.000000, 592.000000)">
                <circle id="Oval" fill="url(#linearGradient-1)" cx="15" cy="15" r="15"></circle>
                <g transform="translate(46.000000, 3.000000)" fill="#E1E8EE" id="Rectangle">
                    <rect x="0" y="0" width="57.5" height="5.333" rx="0.92"></rect>
                    <rect x="0" y="10.667" width="200" height="2.667" rx="0.92"></rect>
                    <rect x="0" y="16" width="183.333" height="2.667" rx="0.92"></rect>
                    <rect x="0" y="21.333" width="166.667" height="2.667" rx="0.92"></rect>
                </g>
            </g>
            <g id="Group" transform="translate(728.000000, 638.000000)">
                <g transform="translate(46.000000, 3.000000)" fill="#E1E8EE" id="Rectangle">
                    <rect x="0" y="0" width="57.5" height="5.333" rx="0.92"></rect>
                    <rect x="0" y="10.667" width="200" height="2.667" rx="0.92"></rect>
                    <rect x="0" y="16" width="183.333" height="2.667" rx="0.92"></rect>
                    <rect x="0" y="21.333" width="166.667" height="2.667" rx="0.92"></rect>
                </g>
                <circle id="Oval" fill="url(#linearGradient-2)" cx="15" cy="15" r="15"></circle>
            </g>
        </g>
    </g>
</svg>