<?xml version="1.0" encoding="UTF-8"?>
<svg width="200px" height="24px" viewBox="0 0 200 24" version="1.1" xmlns="http://www.w3.org/2000/svg" xmlns:xlink="http://www.w3.org/1999/xlink">
    <!-- Generator: Sketch 52.6 (67491) - http://www.bohemiancoding.com/sketch -->
    <title>logo</title>
    <desc>Created with Sketch.</desc>
    <g id="Page-1" stroke="none" stroke-width="1" fill="none" fill-rule="evenodd">
        <g id="logo" fill-rule="nonzero">
            <path d="M23.0899261,1.0000042 C16.7099384,0.997562152 10.0532782,2.05985404 3.3346763,3.43778092 C2.48153361,3.56476754 1.64903814,3.97747404 1.20883964,4.48786255 C0.804154335,4.96894646 0.657146206,5.45186191 0.530785286,5.95797684 C-0.121666525,8.66132653 -0.042381242,11.3158352 0.0930644504,14.2572848 C0.122796432,14.9306802 0.258242124,15.7286201 0.683574634,16.2139776 C1.12790258,16.7042192 1.88937165,17.0155806 2.79867474,17.1175362 C3.96037334,17.2434956 5.12571403,17.3503616 6.29383432,17.4380553 L6.03615715,22.7482937 C5.99651451,23.1707684 6.27566477,23.5218132 6.62253789,23.7238928 C6.93307192,23.8984994 7.27911914,23.9760345 7.63425114,23.9955709 C8.34451514,24.0352542 9.1778365,23.8105856 9.59160657,23.2281566 C11.4044315,20.6493515 12.5416798,19.5107455 14.8087434,17.7976472 C20.7204523,17.9050975 25.8814287,17.6621134 31.724589,17.3428154 C33.7901358,17.3031321 35.2081861,16.0546338 35.5831394,15.0576668 C36.7038699,12.4739776 36.8781324,9.28465987 36.9970603,6.06054295 C37.0474395,4.78274013 36.4478445,3.52813678 35.386578,2.86512012 C34.3773424,2.26010216 33.1550276,2.04092815 32.035123,1.81625952 C28.9240015,1.29549229 25.8120541,1.01587753 23.0899261,1.0000042 Z M31.5883174,3.02080083 C32.7098738,3.24607997 33.6984622,3.46281194 34.3220079,3.83705615 C35.3626272,4.65453249 35.3279399,5.19849919 35.3130739,6.08068987 C35.1957978,9.20773529 34.9926292,12.2425933 34.0379023,14.5423942 C33.6266099,15.4001644 32.9097388,16.0106769 31.5552818,16.1028643 C25.6022785,16.4282675 20.4371726,16.6797987 14.4536114,16.5540331 C14.2181149,16.548463 13.9900051,16.615205 13.8234586,16.7384079 C11.3094544,18.6151236 10.0235462,19.9191784 8.10748518,22.6457276 C8.0628872,22.7079999 7.96625826,22.7458517 7.84733034,22.7525673 C7.76721917,22.7495148 7.73500952,22.7037263 7.73005419,22.6622115 L7.98938314,16.9038568 C8.00507502,16.5931059 7.6582019,16.2963968 7.24030239,16.2628186 C5.84299492,16.164163 4.44949999,16.0379454 3.06130725,15.8843008 C2.46171229,15.8165339 2.24037421,15.6950419 2.07602242,15.5143302 C1.79026505,15.0106573 1.79687215,14.6992959 1.77457317,14.2151594 C1.64077925,11.2999619 1.57470818,8.7522929 2.18008436,6.21744468 C2.23624477,5.84258996 2.42619909,5.45918806 2.62771585,5.13866896 C2.96137475,4.75282501 3.47259965,4.69604734 3.98547633,4.59103918 C10.5562442,3.24974305 16.9849592,2.24667088 23.0370692,2.24361832 C26.0036602,2.32298496 29.1189112,2.54276948 31.5883174,3.02080083 Z M8.8937309,7.95984758 C7.98855725,8.76145059 8.07857908,9.84999452 8.77810653,10.5789465 C9.14314919,10.9605169 9.71301216,11.2676047 10.4067584,11.3372032 C11.3078026,11.3921493 11.8793174,11.1223027 12.496256,10.8121623 C13.6136829,10.0941995 13.7268296,8.84142774 12.8769905,7.9366481 C12.444225,7.4757111 11.7521305,7.19914891 11.0451701,7.1796125 C10.0772289,7.18693866 9.41982179,7.50623673 8.8937309,7.95923707 L8.8937309,7.95984758 Z M18.6854634,7.3053781 C17.7835933,7.32674604 17.0543339,7.78829354 16.60918,8.28647181 C16.0996069,8.85608004 15.8022871,9.56915873 16.2144054,10.2681956 C17.0072582,11.6131548 19.7467299,11.596671 20.8393803,10.2297333 C21.3431722,9.59968436 21.2143336,8.88355311 20.8393803,8.3640069 C20.4660787,7.84507121 19.9011711,7.421986 19.0794121,7.3249145 C18.9492452,7.30909216 18.817323,7.30254997 18.6854634,7.3053781 Z M26.6346389,7.4317542 C26.3538369,7.4268701 26.064776,7.4464065 25.7938846,7.4995211 C24.710319,7.7132005 23.7878017,8.53983453 23.9273769,9.59785282 C23.9984033,10.1302198 24.3295845,10.6491555 24.9267018,11.0069158 C25.5238191,11.3640657 26.3910019,11.52402 27.3052603,11.3854336 C28.3557903,11.2267004 29.0065903,10.600925 29.223799,9.99651753 C29.4410076,9.39211008 29.386499,8.77610289 28.8818812,8.27670361 C28.3498089,7.75369089 27.5206208,7.44180661 26.6354648,7.4317542 L26.6346389,7.4317542 Z M10.971666,8.42261611 C11.1740087,8.42383714 11.3334051,8.47145712 11.4977569,8.64606371 C11.8652773,9.03801279 11.7628671,9.63204153 11.3920432,9.87014143 C11.0228711,10.1082413 10.7924483,10.1289988 10.6305741,10.1131254 C10.4687,10.0966416 10.3043482,10.0142224 10.1573401,9.86037323 C9.87653806,9.56732719 9.79394922,9.09356943 10.1631213,8.75534547 C10.3596828,8.56242349 10.720596,8.44215251 10.9724919,8.42261611 L10.971666,8.42261611 Z M18.8035654,8.55876042 C18.8349492,8.56242349 19.1867776,8.7132201 19.3552589,8.94704642 C19.5237401,9.18087273 19.5551238,9.39821521 19.3949015,9.59785282 C18.9183639,10.1937131 17.9049989,10.0325378 17.7513837,9.77306993 C17.6935715,9.67416689 17.7373435,9.27672321 18.0156679,8.96719333 C18.2923405,8.65644243 18.6408654,8.53983453 18.8035654,8.5581499 L18.8035654,8.55876042 Z M27.5282502,9.01542382 C27.5794552,9.06609637 27.7041644,9.40615187 27.6075354,9.67599843 C27.5100806,9.94584499 27.35151,10.1125149 26.9633425,10.1711241 C26.4661577,10.2468277 26.1870074,10.1711241 25.9780577,10.044748 C25.768282,9.91959295 25.6270551,9.70774509 25.5964973,9.48124492 C25.5221673,8.91957335 25.7947105,8.78953417 26.227476,8.70406241 C26.7312679,8.61248552 27.3011309,8.77243982 27.5282502,9.01542382 Z" id="Shape" fill="#FF52C1"></path>
            <path d="M48,2.97303029 C48.0133637,2.81053547 48.0927104,2.66429013 48.2397107,2.53491925 C48.3846809,2.4064078 48.6006107,2.33495539 48.8252063,2.34117542 L54.5264801,2.34117542 C54.7185827,2.34117542 54.916532,2.40117351 55.1211632,2.52054471 C55.3157375,2.62507525 55.4303504,2.79380237 55.4285275,2.97303029 L55.4285275,9.78093842 L64.9676788,9.78093842 L64.9676788,2.97303029 C64.9676788,2.80053579 65.0478608,2.65241551 65.2073896,2.52804447 C65.3677536,2.40304845 65.5748904,2.34055044 65.8313057,2.34055044 L71.4557384,2.34055044 C71.7113185,2.34055044 71.9351598,2.38867391 72.1272625,2.48429586 C72.3193652,2.5805428 72.4154166,2.73366292 72.4154166,2.94428121 L72.4154166,23.0373911 C72.4154166,23.2480094 72.3318937,23.4061294 72.1648478,23.511126 C71.9994725,23.6167477 71.7814777,23.669246 71.5133692,23.669246 L65.8313057,23.669246 C65.5757256,23.669246 65.3677536,23.6167477 65.2073896,23.511126 C65.0478608,23.4061294 64.9676788,23.2486344 64.9676788,23.0373911 L64.9676788,14.879526 L55.4285275,14.879526 L55.4285275,23.0373911 C55.4285275,23.2386347 55.3416636,23.3936298 55.1696065,23.5042513 C54.996714,23.6142478 54.7628499,23.669246 54.468014,23.669246 L48.8252063,23.669246 C48.288154,23.669246 48.0133637,23.482377 48,23.1092638 L48,2.97303029 Z M100.515029,23.4255038 C100.348818,23.5305004 100.172585,23.5973733 99.9871638,23.6261224 C99.8139295,23.6540637 99.6373408,23.6687222 99.4601343,23.669871 L96.5618894,23.669871 C96.3313661,23.669871 96.1325816,23.638622 95.966371,23.576124 C95.7993252,23.513626 95.6590067,23.4298786 95.5437451,23.324882 C95.4258408,23.2158126 95.3291127,23.0948301 95.2564263,22.9655184 C95.1790832,22.8304146 95.1148819,22.6913071 95.0643236,22.5492817 L94.4696405,20.7105903 C94.2775378,21.0074558 93.9994065,21.344945 93.6344114,21.723058 C93.2395153,22.124323 92.7710877,22.4819884 92.2429198,22.7855242 C91.6799754,23.1167636 91.007616,23.3942548 90.227512,23.6192476 C89.4465728,23.8442404 88.5512072,23.9567368 87.5397448,23.9567368 C86.0814348,23.9567368 84.7567615,23.7461186 83.5665601,23.324882 C82.4013088,22.9174875 81.3645902,22.3300309 80.5246557,21.6011869 C79.686921,20.8737101 79.0371127,20.0237371 78.5769015,19.0512681 C78.1158551,18.0800491 77.8853318,17.0432071 77.8853318,15.9426171 L77.8853318,6.53479183 C77.8853318,6.17105342 77.9914059,5.89606218 78.2027189,5.70919313 C78.4131966,5.52232408 78.7489587,5.42920205 79.2100052,5.42920205 L83.6434011,5.42920205 C84.1946523,5.42920205 84.5713407,5.49794986 84.7759718,5.63732042 C84.9806029,5.776066 85.0833361,6.04668238 85.0833361,6.44854458 L85.0833361,15.7982467 C85.0833361,16.2107336 85.2086204,16.6007212 85.4575187,16.9694594 C85.7072522,17.3381977 86.0363325,17.6631873 86.4464299,17.9456783 C86.8556922,18.2281693 87.3192443,18.4512872 87.8379216,18.613782 C88.3557636,18.7762769 88.8836284,18.8575243 89.4215159,18.8575243 C89.8817272,18.8575243 90.358643,18.7762769 90.8514281,18.613782 C91.3474634,18.449204 91.8068781,18.2287372 92.2136868,17.9600529 C92.6296309,17.6875616 92.9720748,17.3663218 93.2410185,16.9975835 C93.5099623,16.6288453 93.643599,16.2388577 93.643599,15.8276208 L93.643599,6.4916682 C93.643599,6.32917338 93.6853604,6.16667856 93.7688833,6.00355875 C93.8524062,5.84106393 93.9768554,5.71606791 94.143066,5.62982066 C94.3092765,5.55357309 94.4662996,5.50107476 94.6132999,5.47232568 C94.7603002,5.44357659 94.930687,5.42857707 95.1219544,5.42857707 L99.4601343,5.42857707 C100.009715,5.42857707 100.406449,5.52982384 100.649501,5.73044245 C100.892552,5.93168604 101.014496,6.1998025 101.014496,6.53479183 L101.014496,22.6067798 C101.014496,22.7880241 100.960206,22.9561437 100.851626,23.1092638 C100.743046,23.262384 100.592705,23.3823801 100.400602,23.4680024 L100.515029,23.4255038 Z M122.799776,21.4430669 C122.453991,21.7018087 122.073127,21.9792998 121.658018,22.2761654 C121.242074,22.5730309 120.784368,22.8511471 120.285736,23.1092638 C119.783835,23.3690247 119.242773,23.5836228 118.673744,23.7486185 C118.079325,23.9187167 117.447563,24.0039355 116.811183,23.9998605 C115.071401,23.9998605 113.468596,23.7561182 112.002769,23.2673838 C110.573889,22.7982278 109.287455,22.1165157 108.221687,21.2636976 C107.165958,20.4162246 106.340751,19.4181314 105.746068,18.268793 C105.15055,17.1200796 104.853208,15.885119 104.853208,14.5632861 C104.853208,13.2320785 105.15055,11.9946179 105.746068,10.8509043 C106.340751,9.70719077 107.165958,8.71097251 108.221687,7.8634995 C109.286199,7.01149178 110.573123,6.33207278 112.002769,5.86731309 C113.468596,5.3835785 115.071401,5.14171121 116.811183,5.14171121 C117.515281,5.14171121 118.158408,5.21858376 118.740562,5.37170388 C119.302304,5.51733245 119.83741,5.71512068 120.333344,5.96043513 C120.813601,6.1998025 121.254602,6.47041888 121.658018,6.77165929 C122.060598,7.07352467 122.441463,7.36789029 122.799776,7.65538113 L122.799776,1.09121524 C122.799776,0.784974994 122.92506,0.526858217 123.173958,0.316239926 C123.423692,0.104996655 123.797875,0 124.297342,0 L128.615476,0 C128.782522,0 128.95792,0.0262491638 129.143341,0.0787474915 C129.328762,0.131870799 129.498313,0.20561845 129.65283,0.301865384 C129.805677,0.397487338 129.930126,0.512483675 130.026178,0.646229414 C130.122229,0.780600134 130.170672,0.928720415 130.170672,1.09121524 L130.170672,22.5636562 C130.170672,23.3011327 129.65283,23.669871 128.615476,23.669871 L124.853604,23.669871 C124.598024,23.669871 124.39924,23.6448718 124.258921,23.5973733 C124.119558,23.5505685 123.99746,23.4791512 123.903113,23.3892549 C123.796202,23.2838497 123.709086,23.1679852 123.644192,23.0448909 C123.553712,22.8827393 123.45791,22.7222791 123.356874,22.5636562 L122.799776,21.4430669 Z M111.763059,14.5632861 C111.756643,15.1672651 111.889731,15.7675329 112.156452,16.3376046 C112.418714,16.887587 112.792896,17.3644468 113.279835,17.766309 C113.771362,18.1713351 114.368959,18.4963918 115.035486,18.7212786 C115.720374,18.9562711 116.478762,19.0731424 117.31065,19.0731424 C118.129175,19.0731424 118.900091,18.9631459 119.6234,18.7431529 C120.325869,18.5325924 120.96759,18.2227969 121.513523,17.830682 C122.05595,17.4379983 122.495581,16.9729548 122.809799,16.4594757 C123.135538,15.9326175 123.318453,15.3676355 123.356874,14.7645297 L123.356874,14.5632861 C123.359765,13.9622607 123.20305,13.3667942 122.895827,12.8114669 C122.598299,12.2670552 122.165204,11.7699166 121.619597,11.3465136 C121.072618,10.9236047 120.420663,10.5845786 119.700241,10.3484203 C118.947156,10.1015711 118.132789,9.97675779 117.31065,9.98218201 C116.478762,9.98218201 115.720374,10.1040531 115.035486,10.3484203 C114.350598,10.5921626 113.765938,10.925277 113.279835,11.3465136 C112.785751,11.7777102 112.404645,12.2746939 112.156452,12.8114669 C111.892773,13.3743299 111.759998,13.9668509 111.763894,14.5632861 L111.763059,14.5632861 Z M152.45542,21.4430669 C152.109635,21.7018087 151.72877,21.9792998 151.312826,22.2761654 C150.896882,22.5730309 150.439177,22.8511471 149.940545,23.1092638 C149.438644,23.3690247 148.897582,23.5836228 148.328553,23.7486185 C147.734134,23.9187167 147.102372,24.0039355 146.465992,23.9998605 C144.72621,23.9998605 143.123405,23.7561182 141.658413,23.2673838 C140.229234,22.7983011 138.942508,22.1165848 137.876496,21.2636976 C136.821602,20.4162246 135.99556,19.4181314 135.400877,18.268793 C134.806194,17.1200796 134.508017,15.885119 134.508017,14.5632861 C134.508017,13.2320785 134.806194,11.9946179 135.400877,10.8509043 C135.99556,9.70719077 136.820766,8.71097251 137.876496,7.8634995 C138.941252,7.01142195 140.228468,6.33199873 141.658413,5.86731309 C143.123405,5.3835785 144.72621,5.14171121 146.465992,5.14171121 C147.17009,5.14171121 147.813216,5.21858376 148.395371,5.37170388 C148.957113,5.51733245 149.492218,5.71512068 149.988153,5.96043513 C150.46841,6.1998025 150.909411,6.47041888 151.312826,6.77165929 C151.716242,7.07352467 152.096271,7.36789029 152.454584,7.65538113 L152.454584,1.09121524 C152.454584,0.784974994 152.579869,0.526858217 152.828767,0.316239926 C153.079336,0.104996655 153.452683,0 153.95215,0 L158.270285,0 C158.43733,0 158.612728,0.0262491638 158.798149,0.0787474915 C158.984405,0.131870799 159.153957,0.20561845 159.307639,0.301865384 C159.460486,0.397487338 159.58577,0.512483675 159.681822,0.646229414 C159.777038,0.780600134 159.825481,0.928720415 159.825481,1.09121524 L159.825481,22.5636562 C159.825481,23.3011327 159.307639,23.669871 158.270285,23.669871 L154.508413,23.669871 C154.252833,23.669871 154.054048,23.6448718 153.91373,23.5973733 C153.77467,23.5504826 153.652869,23.4790715 153.558757,23.3892549 C153.451846,23.2838497 153.36473,23.1679852 153.299836,23.0448909 C153.20908,22.8827333 153.112999,22.7222731 153.011682,22.5636562 L152.454584,21.4430669 L152.45542,21.4430669 Z M141.417867,14.5632861 C141.411452,15.1672651 141.54454,15.7675329 141.81126,16.3376046 C142.074357,16.887587 142.44854,17.3644468 142.934643,17.766309 C143.426415,18.1714045 144.024303,18.4964654 144.69113,18.7212786 C145.376018,18.9562711 146.133571,19.0731424 146.965459,19.0731424 C147.783983,19.0731424 148.5549,18.9631459 149.278208,18.7431529 C149.980975,18.5326631 150.622986,18.2228641 151.169167,17.830682 C151.710996,17.4378907 152.150053,16.9728541 152.463772,16.4594757 C152.790347,15.9326175 152.973262,15.3676355 153.011682,14.7645297 L153.011682,14.5632861 C153.014574,13.9622607 152.857858,13.3667942 152.550636,12.8114669 C152.253107,12.2670552 151.820013,11.7699166 151.274406,11.3465136 C150.727426,10.9236047 150.075471,10.5845786 149.355049,10.3484203 C148.601965,10.1015711 147.787598,9.97675779 146.965459,9.98218201 C146.133571,9.98218201 145.375183,10.1040531 144.69113,10.3484203 C144.006242,10.5921626 143.420747,10.925277 142.934643,11.3465136 C142.44056,11.7777102 142.059453,12.2746939 141.81126,12.8114669 C141.547582,13.3743299 141.414806,13.9668509 141.418703,14.5632861 L141.417867,14.5632861 Z M164.932072,1.10558978 C164.932072,0.799349536 165.03397,0.541232759 165.238601,0.330614468 C165.444067,0.119371197 165.795699,0.0143745421 166.29433,0.0143745421 L170.99667,0.0143745421 C171.125295,0.0143745421 171.259767,0.0406237059 171.400086,0.0931220335 C171.54762,0.14973728 171.680763,0.225250813 171.793479,0.316239926 C171.915422,0.41186188 172.01732,0.526858217 172.100843,0.660603956 C172.184366,0.794974676 172.226127,0.943094957 172.226127,1.10558978 L172.226127,22.5636562 C172.226127,22.9273946 172.088314,23.2023859 171.812689,23.3892549 C171.537899,23.576124 171.182926,23.669246 170.747772,23.669246 L166.29433,23.669246 C165.795699,23.669246 165.444067,23.575499 165.238601,23.3892549 C165.03397,23.2023859 164.932072,22.9267697 164.932072,22.5636562 L164.932072,1.10558978 Z M197.255437,21.4861905 C196.142518,22.255479 194.855747,22.8706494 193.455145,23.3030077 C192.036811,23.7403585 190.516516,23.962567 188.982493,23.9567368 C187.228512,23.9567368 185.572253,23.7173695 184.01121,23.2380097 C182.485462,22.7765755 181.091333,22.1016203 179.903553,21.2493231 C178.720332,20.3954467 177.768818,19.3784955 177.101359,18.2544185 C176.40979,17.1057051 176.06484,15.8563699 176.06484,14.5057879 C176.06484,13.6633147 176.201818,12.8470907 176.477443,12.0571159 C176.743721,11.2841827 177.137052,10.5389375 177.648434,9.83843659 C178.15391,9.14895833 178.772908,8.50961826 179.49095,7.93537221 C180.207052,7.36015904 181.023784,6.86002126 181.918961,6.44854458 C182.829716,6.0317783 183.810909,5.70808253 184.836416,5.48607524 C185.915454,5.25329425 187.033479,5.13732935 188.156452,5.14171121 C189.218863,5.14171121 190.2487,5.24733284 191.246799,5.45795113 C192.244898,5.66856942 193.18286,5.96543497 194.059016,6.34792278 C194.936006,6.73103558 195.737826,7.19102093 196.467816,7.72725384 C197.187666,8.25455227 197.819269,8.84531698 198.348752,9.4865728 C198.873545,10.1231657 199.283575,10.8088752 199.568187,11.5258828 C199.855505,12.2489848 200,12.9933361 200,13.7589367 C200,14.2570458 199.989977,14.6639079 199.970767,14.9801478 C199.951557,15.2957627 199.852164,15.5476297 199.673425,15.7338738 C199.493851,15.9213678 199.197345,16.0501137 198.780566,16.1213614 C198.364621,16.1938591 197.753234,16.229483 196.948073,16.229483 L183.128373,16.229483 C183.256163,16.8419635 183.515084,17.3544472 183.905136,17.766934 C184.266427,18.157357 184.726034,18.4912916 185.258207,18.7500277 C185.770202,18.9943949 186.313936,19.1687644 186.890244,19.275011 C187.42361,19.3761112 187.971254,19.428987 188.521447,19.432506 C188.982493,19.432506 189.455233,19.3962571 189.941336,19.3250094 C190.42046,19.2546522 190.892192,19.1585735 191.352873,19.0375185 C191.783692,18.9254777 192.200884,18.7860134 192.59987,18.6206568 C192.977394,18.4631618 193.281417,18.2975421 193.51194,18.1256726 C193.716572,18.0006766 193.892805,17.9075545 194.039805,17.8450565 C194.186806,17.7825585 194.343829,17.7519345 194.510039,17.7519345 C194.677085,17.7519345 194.845801,17.7956831 195.019529,17.8813054 C195.229932,17.991382 195.425717,18.1163268 195.604189,18.2544185 L197.638807,19.9781136 C197.779126,20.1031096 197.869331,20.215606 197.907751,20.3156028 C197.946172,20.4162246 197.965382,20.5193463 197.965382,20.624343 C197.965382,20.8162119 197.894387,20.9812066 197.754069,21.1199522 C197.612221,21.259526 197.443966,21.3828998 197.254602,21.4861905 L197.255437,21.4861905 Z M188.022815,9.52219667 C187.523348,9.52219667 187.040586,9.5965693 186.573692,9.74468958 C186.099849,9.89606795 185.656974,10.0967965 185.258207,10.3409206 C184.848944,10.5896627 184.481444,10.8721537 184.154869,11.1883936 C183.843214,11.486545 183.576026,11.809283 183.358061,12.1508629 L193.166156,12.1508629 C192.908956,11.7907735 192.617255,11.4450894 192.293341,11.1165209 C191.98534,10.8047893 191.623934,10.5246924 191.218401,10.2834224 C190.803524,10.0393218 190.336056,9.84994688 189.836097,9.72344025 C189.318255,9.58906954 188.713549,9.52219667 188.022815,9.52219667 Z" id="Shape" fill="#00252E"></path>
        </g>
    </g>
</svg>